<?xml version="1.0" encoding="utf-8"?>
<!-- Generator: Adobe Illustrator 16.0.3, SVG Export Plug-In . SVG Version: 6.00 Build 0)  -->
<!DOCTYPE svg PUBLIC "-//W3C//DTD SVG 1.1//EN" "http://www.w3.org/Graphics/SVG/1.1/DTD/svg11.dtd">
<svg version="1.1" id="Layer_1" xmlns="http://www.w3.org/2000/svg" xmlns:xlink="http://www.w3.org/1999/xlink" x="0px" y="0px"
	 width="350px" height="250px" viewBox="0 0 350 250" enable-background="new 0 0 350 250" xml:space="preserve">
<g>
	<path fill="none" d="M220.26,50.94c0-3.212-4.446-5.839-9.877-5.839h-62.765c-5.433,0-9.877,2.627-9.877,5.839
		c0,3.209,4.445,5.835,9.877,5.835h62.765C215.814,56.776,220.26,54.15,220.26,50.94z"/>
</g>
<g>
	<path fill="#C3C3C3" d="M210.382,58.423h-62.765c-6.461,0-11.524-3.287-11.524-7.483c0-4.198,5.062-7.485,11.524-7.485h62.765
		c6.461,0,11.524,3.288,11.524,7.485C221.906,55.137,216.844,58.423,210.382,58.423z M147.618,46.748
		c-4.711,0-8.231,2.213-8.231,4.193c0,1.978,3.521,4.19,8.231,4.19h62.765c4.71,0,8.231-2.213,8.231-4.19
		c0-1.979-3.521-4.193-8.231-4.193H147.618z"/>
</g>
<g>
	<path fill="none" d="M225.201,149.641c0,9.055-7.408,16.462-16.463,16.462h-59.266c-9.054,0-16.463-7.408-16.463-16.462V81.21
		c0-9.055,3.473-16.463,7.715-16.463c4.243,0,4.243-1.839,0-4.09c-4.242-2.247-0.306-4.138,8.748-4.199l59.266-0.405
		c9.055-0.061,13.422,1.868,9.706,4.29c-3.716,2.424-3.716,4.405,0,4.405c3.717,0,6.758,7.408,6.758,16.463V149.641z"/>
</g>
<g>
	<path fill="#C3C3C3" d="M208.737,167.75h-59.266c-9.985,0-18.109-8.124-18.109-18.109V81.21c0-10.154,4.113-18.109,9.361-18.109
		c0.312,0,0.578-0.012,0.8-0.03c-0.352-0.258-0.855-0.582-1.571-0.959c-2.513-1.332-2.754-2.782-2.513-3.762
		c0.209-0.857,0.848-3.462,12.021-3.539l59.694-0.406c7.365,0,11.455,1.197,12.156,3.559c0.23,0.774,0.281,2.292-1.968,3.757
		c-0.847,0.553-1.372,1.009-1.679,1.337c0.201,0.025,0.456,0.042,0.78,0.042c5.458,0,8.404,9.329,8.404,18.109v68.43
		C226.847,159.626,218.723,167.75,208.737,167.75z M141.221,59.049c0.08,0.049,0.172,0.1,0.273,0.154
		c1.14,0.604,4.604,2.441,3.988,4.917c-0.375,1.51-1.978,2.275-4.759,2.275c-2.864,0-6.068,6.335-6.068,14.816v68.43
		c0,8.171,6.646,14.817,14.816,14.817h59.266c8.171,0,14.816-6.646,14.816-14.817V81.21c0-9.044-3.027-14.816-5.111-14.816
		c-3.036,0-4.028-1.2-4.328-2.207c-0.494-1.66,0.659-3.418,3.429-5.225c0.092-0.059,0.171-0.114,0.238-0.164
		c-0.979-0.447-3.518-1.102-8.628-1.102l-0.405,0.002l-59.266,0.405C144.822,58.136,142.343,58.645,141.221,59.049z"/>
</g>
<g>
	<path fill="#C3C3C3" d="M203.934,136.747h-49.662c-6.354,0-11.524-5.17-11.524-11.525v-22.501c0-6.354,5.17-11.524,11.524-11.524
		h49.662c6.354,0,11.524,5.17,11.524,11.524v22.501C215.458,131.577,210.288,136.747,203.934,136.747z M154.272,94.49
		c-4.539,0-8.231,3.693-8.231,8.231v22.501c0,4.539,3.693,8.232,8.231,8.232h49.662c4.539,0,8.231-3.693,8.231-8.232v-22.501
		c0-4.539-3.692-8.231-8.231-8.231H154.272z"/>
</g>
<g>
	<path fill="#C2C2C1" d="M172.106,65.886h-20.374c-0.91,0-1.646-0.736-1.646-1.646c0-0.91,0.736-1.646,1.646-1.646h20.374
		c0.91,0,1.646,0.736,1.646,1.646C173.752,65.15,173.016,65.886,172.106,65.886z"/>
</g>
<g>
	<path fill="#C2C2C1" d="M189.598,65.886h-6.585c-0.91,0-1.647-0.736-1.647-1.646c0-0.91,0.737-1.646,1.647-1.646h6.585
		c0.91,0,1.646,0.736,1.646,1.646C191.244,65.15,190.508,65.886,189.598,65.886z"/>
</g>
<rect x="24" y="197.693" fill="none" width="310" height="21.255"/>
<text transform="matrix(1 0 0 1 98.1211 210.6128)" fill="#C3C3C3" font-family="'OpenSans-Bold'" font-size="17">No Photo Available</text>
</svg>
