<?xml version="1.0" encoding="UTF-8" standalone="no"?>
<svg width="59px" height="59px" viewBox="0 0 59 59" version="1.1" xmlns="http://www.w3.org/2000/svg" xmlns:xlink="http://www.w3.org/1999/xlink" xmlns:sketch="http://www.bohemiancoding.com/sketch/ns">
    <!-- Generator: Sketch 3.4.4 (17249) - http://www.bohemiancoding.com/sketch -->
    <title>check</title>
    <desc>Created with Sketch.</desc>
    <defs></defs>
    <g id="Page-1" stroke="none" stroke-width="1" fill="none" fill-rule="evenodd" sketch:type="MSPage">
        <g id="04f.-Detailed-Product-my-Products" sketch:type="MSArtboardGroup" transform="translate(-693.000000, -426.000000)" fill="#4DD471">
            <g id="001.-Request-a-Sample" sketch:type="MSLayerGroup">
                <g id="check" transform="translate(693.000000, 426.000000)" sketch:type="MSShapeGroup">
                    <path d="M29.5,58.8785294 C13.3010294,58.8785294 0.121470588,45.6989706 0.121470588,29.5 C0.121470588,13.3010294 13.3010294,0.121470588 29.5,0.121470588 C45.6989706,0.121470588 58.8785294,13.3010294 58.8785294,29.5 C58.8785294,45.6989706 45.6989706,58.8785294 29.5,58.8785294 L29.5,58.8785294 Z M29.5,3.34911765 C15.0797059,3.34911765 3.34911765,15.0797059 3.34911765,29.5 C3.34911765,43.9202941 15.0797059,55.6508824 29.5,55.6508824 C43.9202941,55.6508824 55.6508824,43.9202941 55.6508824,29.5 C55.6508824,15.0797059 43.9202941,3.34911765 29.5,3.34911765 L29.5,3.34911765 Z" id="Fill-43"></path>
                    <path d="M25.9912353,42.1954118 L11.0052353,27.1695 L13.2888824,24.8893235 L25.9964412,37.6281176 L45.7128529,17.9099706 L47.9930294,20.1936176 L25.9912353,42.1954118" id="Fill-44"></path>
                </g>
            </g>
        </g>
    </g>
</svg>