<?xml version="1.0" encoding="UTF-8" standalone="no"?>
<svg width="19px" height="17px" viewBox="0 0 19 17" version="1.1" xmlns="http://www.w3.org/2000/svg" xmlns:xlink="http://www.w3.org/1999/xlink" xmlns:sketch="http://www.bohemiancoding.com/sketch/ns">
    <!-- Generator: Sketch 3.4.4 (17249) - http://www.bohemiancoding.com/sketch -->
    <title>29. Mac</title>
    <desc>Created with Sketch.</desc>
    <defs></defs>
    <g id="Page-1" stroke="none" stroke-width="1" fill="none" fill-rule="evenodd" sketch:type="MSPage">
        <g id="09a.-Style-Guide" sketch:type="MSArtboardGroup" transform="translate(-85.000000, -3917.000000)" fill="#DE5328">
            <g id="Inputs-and-Dropdowns" sketch:type="MSLayerGroup" transform="translate(49.000000, 2892.000000)">
                <g id="Select-Sub-Cat" transform="translate(12.000000, 890.000000)" sketch:type="MSShapeGroup">
                    <g id="Dropdown">
                        <path d="M41.3478261,135 L25.6521739,135 C24.7397609,135 24,135.761175 24,136.7 L24,146.475 C24,147.413825 24.7397609,148.175 25.6521739,148.175 L31.3542391,148.175 C31.1088913,149.577925 30.2918913,150.5431 29.5368478,151.15 L28.5434783,151.15 C28.3158913,151.15 28.1304348,151.339975 28.1304348,151.575 C28.1304348,151.810025 28.3158913,152 28.5434783,152 L38.4565217,152 C38.6849348,152 38.8695652,151.810025 38.8695652,151.575 C38.8695652,151.339975 38.6849348,151.15 38.4565217,151.15 L37.4643913,151.15 C36.7093478,150.5431 35.8919348,149.577925 35.6461739,148.175 L41.3478261,148.175 C42.2602391,148.175 43,147.413825 43,146.475 L43,136.7 C43,135.761175 42.2602391,135 41.3478261,135 L41.3478261,135 Z M36.2277391,151.15 L30.7735,151.15 C31.4318913,150.43515 32.018413,149.459775 32.2022174,148.175 L34.7990217,148.175 C34.982,149.459775 35.5685217,150.43515 36.2277391,151.15 L36.2277391,151.15 Z M42.173913,146.475 C42.173913,146.9442 41.8042391,147.325 41.3478261,147.325 L25.6521739,147.325 C25.1961739,147.325 24.826087,146.9442 24.826087,146.475 L24.826087,145.625 L42.173913,145.625 L42.173913,146.475 L42.173913,146.475 Z M42.173913,144.775 L24.826087,144.775 L24.826087,136.7 C24.826087,136.230375 25.1961739,135.85 25.6521739,135.85 L41.3478261,135.85 C41.8042391,135.85 42.173913,136.230375 42.173913,136.7 L42.173913,144.775 L42.173913,144.775 Z M33.5,146.9 C33.728413,146.9 33.9130435,146.710025 33.9130435,146.475 C33.9130435,146.239975 33.728413,146.05 33.5,146.05 C33.272413,146.05 33.0869565,146.239975 33.0869565,146.475 C33.0869565,146.710025 33.272413,146.9 33.5,146.9 L33.5,146.9 Z" id="29.-Mac"></path>
                    </g>
                </g>
            </g>
        </g>
    </g>
</svg>