<?xml version="1.0" encoding="UTF-8" standalone="no"?>
<svg width="19px" height="17px" viewBox="0 0 19 17" version="1.1" xmlns="http://www.w3.org/2000/svg" xmlns:xlink="http://www.w3.org/1999/xlink" xmlns:sketch="http://www.bohemiancoding.com/sketch/ns">
    <!-- Generator: Sketch 3.4.4 (17249) - http://www.bohemiancoding.com/sketch -->
    <title>29. Mac</title>
    <desc>Created with Sketch.</desc>
    <defs></defs>
    <g id="Page-1" stroke="none" stroke-width="1" fill="none" fill-rule="evenodd" sketch:type="MSPage">
        <g id="09a.-Style-Guide" sketch:type="MSArtboardGroup" transform="translate(-85.000000, -4197.000000)" fill="#FFFFFF">
            <path d="M102.347826,4197 L86.6521739,4197 C85.7397609,4197 85,4197.76117 85,4198.7 L85,4208.475 C85,4209.41382 85.7397609,4210.175 86.6521739,4210.175 L92.3542391,4210.175 C92.1088913,4211.57792 91.2918913,4212.5431 90.5368478,4213.15 L89.5434783,4213.15 C89.3158913,4213.15 89.1304348,4213.33997 89.1304348,4213.575 C89.1304348,4213.81002 89.3158913,4214 89.5434783,4214 L99.4565217,4214 C99.6849348,4214 99.8695652,4213.81002 99.8695652,4213.575 C99.8695652,4213.33997 99.6849348,4213.15 99.4565217,4213.15 L98.4643913,4213.15 C97.7093478,4212.5431 96.8919348,4211.57792 96.6461739,4210.175 L102.347826,4210.175 C103.260239,4210.175 104,4209.41382 104,4208.475 L104,4198.7 C104,4197.76117 103.260239,4197 102.347826,4197 L102.347826,4197 Z M97.2277391,4213.15 L91.7735,4213.15 C92.4318913,4212.43515 93.018413,4211.45978 93.2022174,4210.175 L95.7990217,4210.175 C95.982,4211.45978 96.5685217,4212.43515 97.2277391,4213.15 L97.2277391,4213.15 Z M103.173913,4208.475 C103.173913,4208.9442 102.804239,4209.325 102.347826,4209.325 L86.6521739,4209.325 C86.1961739,4209.325 85.826087,4208.9442 85.826087,4208.475 L85.826087,4207.625 L103.173913,4207.625 L103.173913,4208.475 L103.173913,4208.475 Z M103.173913,4206.775 L85.826087,4206.775 L85.826087,4198.7 C85.826087,4198.23038 86.1961739,4197.85 86.6521739,4197.85 L102.347826,4197.85 C102.804239,4197.85 103.173913,4198.23038 103.173913,4198.7 L103.173913,4206.775 L103.173913,4206.775 Z M94.5,4208.9 C94.728413,4208.9 94.9130435,4208.71003 94.9130435,4208.475 C94.9130435,4208.23998 94.728413,4208.05 94.5,4208.05 C94.272413,4208.05 94.0869565,4208.23998 94.0869565,4208.475 C94.0869565,4208.71003 94.272413,4208.9 94.5,4208.9 L94.5,4208.9 Z" id="29.-Mac" sketch:type="MSShapeGroup"></path>
        </g>
    </g>
</svg>