<?xml version="1.0" encoding="UTF-8" standalone="no"?>
<svg width="87px" height="85px" viewBox="0 0 87 85" version="1.1" xmlns="http://www.w3.org/2000/svg" xmlns:xlink="http://www.w3.org/1999/xlink">
    <!-- Generator: Sketch 3.6.1 (26313) - http://www.bohemiancoding.com/sketch -->
    <title>play</title>
    <desc>Created with Sketch.</desc>
    <defs></defs>
    <g id="Page-1" stroke="none" stroke-width="1" fill="none" fill-rule="evenodd">
        <g id="11a.-Vendor-Sign-Up" transform="translate(-677.000000, -306.000000)" fill="#FFFFFF">
            <g id="01.-Header" transform="translate(0.000000, 87.000000)">
                <g id="Screen-Shot-2016-02-26-at-3.54.12-PM" transform="translate(410.000000, 124.000000)">
                    <g id="play" transform="translate(267.399577, 95.692884)">
                        <path d="M43.1128195,83.7377988 C19.4388095,83.7377988 0.177523375,64.9936614 0.177523375,41.9552779 C0.177523375,18.9168944 19.4388095,0.172757027 43.1128195,0.172757027 C66.7868295,0.172757027 86.0481157,18.9168944 86.0481157,41.9552779 C86.0481157,64.9936614 66.7868295,83.7377988 43.1128195,83.7377988 L43.1128195,83.7377988 Z M43.1128195,4.76315802 C22.0382589,4.76315802 4.89457304,21.4465509 4.89457304,41.9552779 C4.89457304,62.4640049 22.0382589,79.1473978 43.1128195,79.1473978 C64.1873801,79.1473978 81.331066,62.4640049 81.331066,41.9552779 C81.331066,21.4465509 64.1873801,4.76315802 43.1128195,4.76315802 L43.1128195,4.76315802 Z" id="Fill-124"></path>
                        <path d="M30.4325785,63.5276946 L30.4325785,20.3828612 L68.4352609,41.9552779 L30.4325785,63.5276946 L30.4325785,63.5276946 Z M35.5046749,28.9762893 L35.5046749,54.9342665 L58.3671495,41.9552779 L35.5046749,28.9762893 L35.5046749,28.9762893 Z" id="Fill-125"></path>
                    </g>
                </g>
            </g>
        </g>
    </g>
</svg>