<?xml version="1.0" encoding="UTF-8" standalone="no"?>
<svg width="26px" height="26px" viewBox="0 0 26 26" version="1.1" xmlns="http://www.w3.org/2000/svg" xmlns:xlink="http://www.w3.org/1999/xlink" xmlns:sketch="http://www.bohemiancoding.com/sketch/ns">
    <!-- Generator: Sketch 3.4.4 (17249) - http://www.bohemiancoding.com/sketch -->
    <title>question</title>
    <desc>Created with Sketch.</desc>
    <defs></defs>
    <g id="Page-1" stroke="none" stroke-width="1" fill="none" fill-rule="evenodd" sketch:type="MSPage">
        <g id="09a.-Style-Guide" sketch:type="MSArtboardGroup" transform="translate(-221.000000, -4002.000000)">
            <g id="question" sketch:type="MSLayerGroup" transform="translate(222.000000, 4003.000000)">
                <circle id="Oval-419" stroke="#DE5328" sketch:type="MSShapeGroup" cx="12" cy="12" r="12"></circle>
                <path d="M11.075639,14.5610329 L11.075639,14.1103286 C11.075639,13.4593082 11.1757945,12.9237545 11.3761085,12.5036515 C11.5764225,12.0835486 11.9492235,11.6398041 12.4945227,11.1724048 C13.2512644,10.5325129 13.7283941,10.0512101 13.9259259,9.728482 C14.1234578,9.40575391 14.2222222,9.01626032 14.2222222,8.55998957 C14.2222222,7.99243326 14.0399949,7.55425298 13.6755347,7.24543558 C13.3110745,6.93661817 12.7866492,6.78221179 12.1022431,6.78221179 C11.6626652,6.78221179 11.2342222,6.83368058 10.8169014,6.93661972 C10.3995806,7.03955885 9.92105991,7.2273504 9.38132499,7.5 L8.88888889,6.37323944 C9.94053734,5.82237596 11.0394657,5.54694836 12.1857068,5.54694836 C13.2484838,5.54694836 14.0747667,5.80846548 14.6645801,6.33150756 C15.2543935,6.85454965 15.5492958,7.59180536 15.5492958,8.54329682 C15.5492958,8.94948908 15.4950449,9.30698854 15.3865415,9.61580595 C15.2780381,9.92462335 15.1180675,10.2167435 14.9066249,10.4921753 C14.6951824,10.767607 14.2389185,11.2113515 13.5378195,11.823422 C12.9758275,12.3019499 12.6044175,12.6997898 12.4235785,13.0169536 C12.2427395,13.3341174 12.1523213,13.7569961 12.1523213,14.2856025 L12.1523213,14.5610329 L11.075639,14.5610329 Z M10.6666667,17.0399061 C10.6666667,16.2831644 11.0005183,15.9047992 11.6682316,15.9047992 C11.9909597,15.9047992 12.2399574,16.0021726 12.4152321,16.1969223 C12.5905069,16.391672 12.6781429,16.6726638 12.6781429,17.0399061 C12.6781429,17.3960199 12.5891158,17.6728385 12.4110589,17.8703704 C12.2330021,18.0679022 11.9853954,18.1666667 11.6682316,18.1666667 C11.3788892,18.1666667 11.1396288,18.0790306 10.9504434,17.9037559 C10.761258,17.7284811 10.6666667,17.4405341 10.6666667,17.0399061 L10.6666667,17.0399061 Z" id="?" fill="#DE5328" sketch:type="MSShapeGroup"></path>
            </g>
        </g>
    </g>
</svg>