<?xml version="1.0" encoding="UTF-8" standalone="no"?>
<svg width="26px" height="32px" viewBox="0 0 26 32" version="1.1" xmlns="http://www.w3.org/2000/svg" xmlns:xlink="http://www.w3.org/1999/xlink" xmlns:sketch="http://www.bohemiancoding.com/sketch/ns">
    <!-- Generator: Sketch 3.4.4 (17249) - http://www.bohemiancoding.com/sketch -->
    <title>trash</title>
    <desc>Created with Sketch.</desc>
    <defs></defs>
    <g id="Page-1" stroke="none" stroke-width="1" fill="none" fill-rule="evenodd" sketch:type="MSPage">
        <g id="09a.-Style-Guide" sketch:type="MSArtboardGroup" transform="translate(-69.000000, -4041.000000)" fill="#DE5328">
            <g id="trash" sketch:type="MSLayerGroup" transform="translate(69.000000, 4041.000000)">
                <path d="M8,10 L10,10 L10,26 L8,26 L8,10 Z" id="Fill-6" sketch:type="MSShapeGroup"></path>
                <path d="M12,10 L14,10 L14,26 L12,26 L12,10 Z" id="Fill-7" sketch:type="MSShapeGroup"></path>
                <path d="M16,10 L18,10 L18,26 L16,26 L16,10 Z" id="Fill-8" sketch:type="MSShapeGroup"></path>
                <path d="M0,4 L26,4 L26,6 L0,6 L0,4 Z" id="Fill-9" sketch:type="MSShapeGroup"></path>
                <path d="M17.93,5 L16.07,5 L16.07,3 C16.07,2.41 15.59,1.93 15,1.93 L11,1.93 C10.41,1.93 9.93,2.41 9.93,3 L9.93,5 L8.07,5 L8.07,3 C8.07,1.384 9.385,0.07 11,0.07 L15,0.07 C16.615,0.07 17.93,1.384 17.93,3 L17.93,5" id="Fill-10" sketch:type="MSShapeGroup"></path>
                <path d="M19,32 L7,32 C5.386,32 3.973,30.691 3.85,29.082 L2.003,5.077 L3.997,4.923 L5.844,28.929 C5.888,29.5 6.428,30 7,30 L19,30 C19.572,30 20.112,29.5 20.156,28.93 L22.003,4.923 L23.997,5.077 L22.15,29.082 C22.027,30.691 20.614,32 19,32" id="Fill-11" sketch:type="MSShapeGroup"></path>
            </g>
        </g>
    </g>
</svg>