<?xml version="1.0" encoding="UTF-8" standalone="no"?>
<svg width="34px" height="26px" viewBox="0 0 34 26" version="1.1" xmlns="http://www.w3.org/2000/svg" xmlns:xlink="http://www.w3.org/1999/xlink" xmlns:sketch="http://www.bohemiancoding.com/sketch/ns">
    <!-- Generator: Sketch 3.4.4 (17249) - http://www.bohemiancoding.com/sketch -->
    <title>image</title>
    <desc>Created with Sketch.</desc>
    <defs></defs>
    <g id="Page-1" stroke="none" stroke-width="1" fill="none" fill-rule="evenodd" sketch:type="MSPage">
        <g id="09a.-Style-Guide" sketch:type="MSArtboardGroup" transform="translate(-133.000000, -3995.000000)" fill="#C2C2C2">
            <g id="image" sketch:type="MSLayerGroup" transform="translate(133.000000, 3995.000000)">
                <path d="M31,26 L3,26 C1.346,26 0,24.654 0,23 L0,3 C0,1.346 1.346,0 3,0 L31,0 C32.654,0 34,1.346 34,3 L34,23 C34,24.654 32.654,26 31,26 L31,26 Z M3,2 C2.448,2 2,2.449 2,3 L2,23 C2,23.551 2.448,24 3,24 L31,24 C31.552,24 32,23.551 32,23 L32,3 C32,2.449 31.552,2 31,2 L3,2 L3,2 Z" id="Fill-12" sketch:type="MSShapeGroup"></path>
                <path d="M22,11.93 C19.833,11.93 18.07,10.167 18.07,8 C18.07,5.833 19.833,4.07 22,4.07 C24.167,4.07 25.93,5.833 25.93,8 C25.93,10.167 24.167,11.93 22,11.93 L22,11.93 Z M22,5.93 C20.858,5.93 19.93,6.858 19.93,8 C19.93,9.142 20.858,10.07 22,10.07 C23.142,10.07 24.07,9.142 24.07,8 C24.07,6.858 23.142,5.93 22,5.93 L22,5.93 Z" id="Fill-13" sketch:type="MSShapeGroup"></path>
                <path d="M27.362,25.677 L10.996,10.273 L1.633,18.967 L0.367,17.604 L11.004,7.727 L28.638,24.323 L27.362,25.677" id="Fill-14" sketch:type="MSShapeGroup"></path>
                <path d="M32.416,20.6 L27,16.198 L22.421,19.919 L21.247,18.476 L27,13.802 L33.59,19.156 L32.416,20.6" id="Fill-15" sketch:type="MSShapeGroup"></path>
            </g>
        </g>
    </g>
</svg>