<?xml version="1.0" encoding="UTF-8" standalone="no"?>
<svg width="23px" height="23px" viewBox="0 0 23 23" version="1.1" xmlns="http://www.w3.org/2000/svg" xmlns:xlink="http://www.w3.org/1999/xlink" xmlns:sketch="http://www.bohemiancoding.com/sketch/ns">
    <!-- Generator: Sketch 3.4.4 (17249) - http://www.bohemiancoding.com/sketch -->
    <title>user</title>
    <desc>Created with Sketch.</desc>
    <defs></defs>
    <g id="Page-1" stroke="none" stroke-width="1" fill="none" fill-rule="evenodd" sketch:type="MSPage">
        <g id="09a.-Style-Guide" sketch:type="MSArtboardGroup" transform="translate(-133.000000, -4039.000000)" fill="#DE5328">
            <g id="user" sketch:type="MSLayerGroup" transform="translate(133.000000, 4039.000000)">
                <path d="M11.5419412,22.9526471 C5.22776471,22.9526471 0.0899705882,17.8148529 0.0899705882,11.5 C0.0899705882,5.18514706 5.22776471,0.0473529412 11.5419412,0.0473529412 C17.8567941,0.0473529412 22.9945882,5.18514706 22.9945882,11.5 C22.9945882,17.8148529 17.8567941,22.9526471 11.5419412,22.9526471 L11.5419412,22.9526471 Z M11.5419412,1.30558824 C5.92114706,1.30558824 1.34752941,5.87852941 1.34752941,11.5 C1.34752941,17.1214706 5.92114706,21.6944118 11.5419412,21.6944118 C17.1634118,21.6944118 21.7370294,17.1214706 21.7370294,11.5 C21.7370294,5.87852941 17.1634118,1.30558824 11.5419412,1.30558824 L11.5419412,1.30558824 Z" id="Fill-57" sketch:type="MSShapeGroup"></path>
                <path d="M4.86382353,19.7854118 L3.71179412,19.2787353 C4.06152941,18.4865882 5.0945,18.0232059 6.29185294,17.4860882 C7.44658824,16.9679118 8.88408824,16.3232353 8.88408824,15.5588235 L8.88408824,14.5184118 C8.47482353,14.1754412 7.78144118,13.4380882 7.67252941,12.3293529 C7.34105882,12.0168235 6.79108824,11.3795882 6.79108824,10.5908235 C6.79108824,10.1118824 6.9805,9.72561765 7.14691176,9.48005882 C7.04544118,8.96661765 6.85467647,7.89170588 6.85467647,7.10294118 C6.85467647,4.46064706 8.69467647,2.75323529 11.5419412,2.75323529 C12.3591176,2.75323529 13.3515,2.97241176 13.9041765,3.56432353 C15.1948824,3.79161765 16.2298824,5.31976471 16.2298824,7.10294118 C16.2298824,8.24685294 16.0289706,9.18782353 15.9078824,9.65323529 C16.0425,9.88120588 16.1879412,10.2194412 16.1879412,10.6117941 C16.1879412,11.4986471 15.7401176,12.0722941 15.3220588,12.3787353 C15.2036765,13.4719118 14.5806471,14.1767941 14.2004706,14.5109706 L14.2004706,15.5588235 C14.2004706,16.2089118 15.3788824,16.6459118 16.5187353,17.0687059 C17.8148529,17.549 19.1556176,18.0462059 19.5716471,19.1332941 L18.3952647,19.5824706 C18.1842059,19.0277647 17.0666765,18.6137647 16.0810588,18.2484706 C14.6104118,17.7025588 12.9429118,17.0842647 12.9429118,15.5588235 L12.9429118,13.8581765 L13.2365,13.6735 C13.2662647,13.6538824 14.0841176,13.1045882 14.0841176,12.0073529 L14.0841176,11.5818529 L14.4791765,11.4235588 C14.5454706,11.3931176 14.9297059,11.1908529 14.9297059,10.6117941 C14.9297059,10.4345588 14.7944118,10.2363529 14.7470588,10.1808824 L14.5177353,9.91164706 L14.6232647,9.56867647 C14.6266471,9.55785294 14.9723235,8.49444118 14.9723235,7.10294118 C14.9723235,5.91573529 14.2917941,4.79347059 13.5713529,4.79347059 L13.2101176,4.79347059 L13.0281471,4.48161765 C12.8948824,4.25364706 12.3293529,4.01147059 11.5419412,4.01147059 C9.39482353,4.01147059 8.11223529,5.16688235 8.11223529,7.10294118 C8.11223529,8.01752941 8.43288235,9.49020588 8.43626471,9.50508824 L8.51067647,9.84602941 L8.26173529,10.0895588 C8.26173529,10.0895588 8.04864706,10.3148235 8.04864706,10.5908235 C8.04864706,10.9392059 8.46670588,11.3728235 8.66897059,11.5284118 L8.91385294,11.7171471 L8.91588235,12.0283235 C8.91588235,13.0646765 9.81017647,13.6491471 9.84873529,13.6735 L10.1382647,13.8588529 L10.1416471,15.5588235 C10.1416471,17.1383824 8.36997059,17.9332353 6.80597059,18.6340588 C6.05102941,18.9722941 5.01805882,19.4363529 4.86382353,19.7854118" id="Fill-58" sketch:type="MSShapeGroup"></path>
            </g>
        </g>
    </g>
</svg>